<?xml version="1.0" encoding="UTF-8"?>
<svg width="298px" height="215px" viewBox="0 0 298 215" version="1.1" xmlns="http://www.w3.org/2000/svg" xmlns:xlink="http://www.w3.org/1999/xlink">
    <!-- Generator: Sketch 52.6 (67491) - http://www.bohemiancoding.com/sketch -->
    <title>Group 2</title>
    <desc>Created with Sketch.</desc>
    <defs>
        <linearGradient x1="50%" y1="0%" x2="50%" y2="100%" id="linearGradient-1">
            <stop stop-color="#8FA1B0" offset="0%"/>
            <stop stop-color="#5F7083" offset="100%"/>
        </linearGradient>
    </defs>
    <g id="Page-1" stroke="none" stroke-width="1" fill="none" fill-rule="evenodd">
        <g id="SRP--no-result-found" transform="translate(-657.000000, -269.000000)">
            <g id="Group-6" transform="translate(656.000000, 270.000000)">
                <g id="Group-2">
                    <path d="M158,198 C212.67619,198 257,153.67619 257,99 C257,44.3238098 212.67619,0 158,0 C103.32381,0 59,44.3238098 59,99 C59,153.67619 103.32381,198 158,198 Z" id="circle" stroke="#686B89" stroke-width="2" opacity="0.400000006" stroke-dasharray="2,9"/>
                    <g id="Group" transform="translate(27.000000, 85.000000)">
                        <path d="M246.8396,4.9221 L24.4566,4.9221 C13.1012,4.9221 3.8962,14.1271 3.8962,25.4825 C3.8962,36.8372 13.1012,46.0422 24.4566,46.0422 L246.8396,46.0422 C258.195,46.0422 267.4,36.8372 267.4,25.4825 C267.4,14.1271 258.195,4.9221 246.8396,4.9221" id="Fill-4" fill="#F4F6F8"/>
                        <path d="M246.8396,4.9221 L246.8396,1.4221 L24.4566,1.4221 C17.8234,1.42 11.7866,4.1206 7.4431,8.469 C3.0947,12.8118 0.3948,18.8493 0.3962,25.4825 C0.3948,32.115 3.0947,38.1525 7.4431,42.4953 C11.7866,46.8437 17.8234,49.5443 24.4566,49.5422 L246.8396,49.5422 C253.4728,49.5443 259.5096,46.8437 263.8531,42.4953 C268.2015,38.1525 270.9014,32.115 270.9,25.4825 C270.9014,18.8493 268.2015,12.8118 263.8531,8.469 C259.5096,4.1206 253.4728,1.42 246.8396,1.4221 L246.8396,8.4221 C251.5618,8.4235 255.8045,10.3261 258.9034,13.4187 C261.996,16.5169 263.8979,20.7603 263.9,25.4825 C263.8979,30.204 261.996,34.4474 258.9034,37.5456 C255.8045,40.6382 251.5618,42.5408 246.8396,42.5422 L24.4566,42.5422 C19.7344,42.5408 15.4917,40.6382 12.3935,37.5456 C9.3002,34.4474 7.3983,30.204 7.3962,25.4825 C7.3983,20.7603 9.3002,16.5169 12.3935,13.4187 C15.4917,10.3261 19.7344,8.4235 24.4566,8.4221 L246.8396,8.4221 L246.8396,4.9221" id="Fill-5" fill="#F4F6F8"/>
                        <path d="M249.746373,0.9221 L192.1717,0.9221 L192.1717,49.0422 L249.746373,49.0422 C261.705557,49.0422 271.4,38.2702048 271.4,24.9817404 C271.4,11.6940952 261.705557,0.9221 249.746373,0.9221" id="Fill-6" fill="#5D4DA8"/>
                        <path d="M226.2358,15.9373 C221.8335,15.9373 218.2642,19.508 218.2642,23.9096 C218.2642,28.3126 221.8335,31.8805 226.2358,31.8805 C230.6388,31.8805 234.2074,28.3126 234.2074,23.9096 C234.2074,19.508 230.6388,15.9373 226.2358,15.9373 Z M239.8403,37.5141 C238.9051,38.4479 237.3924,38.4479 236.4586,37.5141 L232.2383,33.2931 C230.5016,34.4047 228.4499,35.069 226.2358,35.069 C220.0723,35.069 215.0757,30.0724 215.0757,23.9096 C215.0757,17.7461 220.0723,12.7495 226.2358,12.7495 C232.3993,12.7495 237.3959,17.7461 237.3959,23.9096 C237.3959,26.1237 236.7316,28.1754 235.62,29.9121 L239.8403,34.1324 C240.7741,35.0669 240.7741,36.5796 239.8403,37.5141 Z" id="Fill-7" fill="#FFFFFE"/>
                        <text id="http://www." font-family="LucidaGrande, Lucida Grande" font-size="14.67018" font-weight="normal" fill="#403A4C">
                            <tspan x="27.53961" y="29.1441247">h</tspan>
                            <tspan x="36.6440039" y="29.1441247" letter-spacing="-0.19071233">t</tspan>
                            <tspan x="41.9402828" y="29.1441247">tp</tspan>
                            <tspan x="56.660605" y="29.1441247" letter-spacing="0.704168653">:</tspan>
                            <tspan x="62.0065103" y="29.1441247" letter-spacing="-0.997572231">/</tspan>
                            <tspan x="68.7021867" y="29.1441247" letter-spacing="-0.440105408">/</tspan>
                            <tspan x="75.95533" y="29.1441247" letter-spacing="-0.117361435">ww</tspan>
                            <tspan x="98.3275837" y="29.1441247" letter-spacing="-0.484115928">w</tspan>
                            <tspan x="109.146956" y="29.1441247">.</tspan>
                        </text>
                        <polyline id="Fill-8" fill="#3F3A4C" points="244.4183 79.1816 203.9282 38.1154 202.083 95.7562 216.4995 84.3966 224.518 104.8779 234.1395 101.1112 226.121 80.6292 244.4183 79.1816"/>
                        <polyline id="Fill-9" fill="#FFFFFE" points="244.4183 79.1816 245.6643 77.9531 202.3098 33.9812 200.214 99.4571 215.7302 87.2309 223.5268 107.1459 236.4075 102.1024 228.6109 82.1874 248.3033 80.6299 245.6643 77.9531 244.4183 79.1816 244.2804 77.4372 223.6318 79.0703 231.8722 100.1193 225.5099 102.6106 217.2695 81.5616 203.9527 92.0553 205.5466 42.2496 243.1723 80.4108 244.4183 79.1816 244.2804 77.4372 244.4183 79.1816"/>
                    </g>
                    <g id="line" opacity="0.5" transform="translate(265.129464, 194.807225) rotate(159.000000) translate(-265.129464, -194.807225) translate(243.129464, 178.807225)" fill="url(#linearGradient-1)" fill-rule="nonzero">
                        <path d="M24.6147648,16.1860199 L19.5693441,6.43268658 C19.040406,5.41019327 17.7930199,5.01548156 16.7832291,5.55107329 C15.7734383,6.08666502 15.3836301,7.34974251 15.9125682,8.37223582 L20.9579889,18.1255691 C21.4869269,19.1480625 22.734313,19.5427742 23.7441038,19.0071824 C24.7538946,18.4715907 25.1437028,17.2085132 24.6147648,16.1860199 Z" id="Line"/>
                        <path d="M11.9222521,27.3764765 L6.8768314,17.6231432 C6.34789337,16.6006499 5.10050721,16.2059382 4.09071643,16.7415299 C3.08092565,17.2771216 2.69111748,18.5401991 3.2200555,19.5626924 L8.2654762,29.3160257 C8.79441423,30.3385191 10.0418004,30.7332308 11.0515912,30.197639 C12.061382,29.6620473 12.4511901,28.3989698 11.9222521,27.3764765 Z" id="Line-Copy" transform="translate(7.571154, 23.469584) rotate(-24.000000) translate(-7.571154, -23.469584) "/>
                        <path d="M40.0280531,12.5913912 L34.9826324,2.8380579 C34.4536944,1.81556459 33.2063082,1.42085287 32.1965174,1.95644461 C31.1867266,2.49203634 30.7969185,3.75511383 31.3258565,4.77760713 L36.3712772,14.5309405 C36.9002152,15.5534338 38.1476014,15.9481455 39.1573922,15.4125538 C40.1671829,14.876962 40.5569911,13.6138845 40.0280531,12.5913912 Z" id="Line-Copy-2" transform="translate(35.676955, 8.684499) rotate(30.000000) translate(-35.676955, -8.684499) "/>
                    </g>
                    <g id="line" opacity="0.5" transform="translate(17.129464, 82.807225) scale(-1, 1) rotate(87.000000) translate(-17.129464, -82.807225) translate(-4.870536, 66.807225)" fill="url(#linearGradient-1)" fill-rule="nonzero">
                        <path d="M24.6147648,16.1860199 L19.5693441,6.43268658 C19.040406,5.41019327 17.7930199,5.01548156 16.7832291,5.55107329 C15.7734383,6.08666502 15.3836301,7.34974251 15.9125682,8.37223582 L20.9579889,18.1255691 C21.4869269,19.1480625 22.734313,19.5427742 23.7441038,19.0071824 C24.7538946,18.4715907 25.1437028,17.2085132 24.6147648,16.1860199 Z" id="Line"/>
                        <path d="M11.9222521,27.3764765 L6.8768314,17.6231432 C6.34789337,16.6006499 5.10050721,16.2059382 4.09071643,16.7415299 C3.08092565,17.2771216 2.69111748,18.5401991 3.2200555,19.5626924 L8.2654762,29.3160257 C8.79441423,30.3385191 10.0418004,30.7332308 11.0515912,30.197639 C12.061382,29.6620473 12.4511901,28.3989698 11.9222521,27.3764765 Z" id="Line-Copy" transform="translate(7.571154, 23.469584) rotate(-24.000000) translate(-7.571154, -23.469584) "/>
                        <path d="M40.0280531,12.5913912 L34.9826324,2.8380579 C34.4536944,1.81556459 33.2063082,1.42085287 32.1965174,1.95644461 C31.1867266,2.49203634 30.7969185,3.75511383 31.3258565,4.77760713 L36.3712772,14.5309405 C36.9002152,15.5534338 38.1476014,15.9481455 39.1573922,15.4125538 C40.1671829,14.876962 40.5569911,13.6138845 40.0280531,12.5913912 Z" id="Line-Copy-2" transform="translate(35.676955, 8.684499) rotate(30.000000) translate(-35.676955, -8.684499) "/>
                    </g>
                </g>
            </g>
        </g>
    </g>
</svg>